<svg xmlns="http://www.w3.org/2000/svg" viewBox="0 0 200 1200">
<rect x="0" y="0" width="200" height="1200" fill="#FFFFFF"/>
<rect x="0" y="0" width="200" height="1200" fill="#0032A0" fill-opacity="0.12"/>
<rect x="0" y="20" width="200" height="4" fill="#FFFFFF" fill-opacity="0.6"/>
<rect x="0" y="34" width="200" height="4" fill="#FFFFFF" fill-opacity="0.6"/>
<rect x="0" y="48" width="200" height="4" fill="#FFFFFF" fill-opacity="0.6"/>
<rect x="0" y="80" width="200" height="40" fill="#FFFFFF" fill-opacity="0.6"/>
<rect x="0" y="220" width="200" height="4" fill="#FFFFFF" fill-opacity="0.6"/>
<rect x="0" y="234" width="200" height="4" fill="#FFFFFF" fill-opacity="0.6"/>
<rect x="0" y="248" width="200" height="4" fill="#FFFFFF" fill-opacity="0.6"/>
<rect x="0" y="280" width="200" height="40" fill="#FFFFFF" fill-opacity="0.6"/>
<rect x="0" y="420" width="200" height="4" fill="#FFFFFF" fill-opacity="0.6"/>
<rect x="0" y="434" width="200" height="4" fill="#FFFFFF" fill-opacity="0.6"/>
<rect x="0" y="448" width="200" height="4" fill="#FFFFFF" fill-opacity="0.6"/>
<rect x="0" y="480" width="200" height="40" fill="#FFFFFF" fill-opacity="0.6"/>
<rect x="0" y="620" width="200" height="4" fill="#FFFFFF" fill-opacity="0.6"/>
<rect x="0" y="634" width="200" height="4" fill="#FFFFFF" fill-opacity="0.6"/>
<rect x="0" y="648" width="200" height="4" fill="#FFFFFF" fill-opacity="0.6"/>
<rect x="0" y="680" width="200" height="40" fill="#FFFFFF" fill-opacity="0.6"/>
<rect x="0" y="820" width="200" height="4" fill="#FFFFFF" fill-opacity="0.6"/>
<rect x="0" y="834" width="200" height="4" fill="#FFFFFF" fill-opacity="0.6"/>
<rect x="0" y="848" width="200" height="4" fill="#FFFFFF" fill-opacity="0.6"/>
<rect x="0" y="880" width="200" height="40" fill="#FFFFFF" fill-opacity="0.6"/>
<rect x="0" y="1020" width="200" height="4" fill="#FFFFFF" fill-opacity="0.6"/>
<rect x="0" y="1034" width="200" height="4" fill="#FFFFFF" fill-opacity="0.6"/>
<rect x="0" y="1048" width="200" height="4" fill="#FFFFFF" fill-opacity="0.6"/>
<rect x="0" y="1080" width="200" height="40" fill="#FFFFFF" fill-opacity="0.6"/>
</svg>
