<svg xmlns="http://www.w3.org/2000/svg" viewBox="0 0 1920 300">
<rect x="0" y="0" width="640" height="200" fill="#0032A0"/>
<path d="M 80,30 L 150,100 L 80,170 L 10,100 Z" fill="none" stroke="#FDDA25" stroke-width="10"/>
<circle cx="80" cy="100" r="12" fill="#C8102E"/>
<path d="M 240,30 L 310,100 L 240,170 L 170,100 Z" fill="none" stroke="#FDDA25" stroke-width="10"/>
<circle cx="240" cy="100" r="12" fill="#C8102E"/>
<path d="M 400,30 L 470,100 L 400,170 L 330,100 Z" fill="none" stroke="#FDDA25" stroke-width="10"/>
<circle cx="400" cy="100" r="12" fill="#C8102E"/>
<path d="M 560,30 L 630,100 L 560,170 L 490,100 Z" fill="none" stroke="#FDDA25" stroke-width="10"/>
<circle cx="560" cy="100" r="12" fill="#C8102E"/>
<rect x="640" y="0" width="640" height="200" fill="#C8102E"/>
<path d="M 640,140 L 720,60 L 800,140" fill="none" stroke="#FFFFFF" stroke-width="14" stroke-linejoin="round" stroke-linecap="square"/>
<path d="M 800,140 L 880,60 L 960,140" fill="none" stroke="#FFFFFF" stroke-width="14" stroke-linejoin="round" stroke-linecap="square"/>
<path d="M 960,140 L 1040,60 L 1120,140" fill="none" stroke="#FFFFFF" stroke-width="14" stroke-linejoin="round" stroke-linecap="square"/>
<path d="M 1120,140 L 1200,60 L 1280,140" fill="none" stroke="#FFFFFF" stroke-width="14" stroke-linejoin="round" stroke-linecap="square"/>
<rect x="640" y="0" width="640" height="6" fill="#FDDA25"/>
<rect x="640" y="194" width="640" height="6" fill="#FDDA25"/>
<rect x="1280" y="0" width="640" height="200" fill="#0032A0"/>
<rect x="1300" y="0" width="4" height="200" fill="#FFFFFF"/>
<rect x="1314" y="0" width="4" height="200" fill="#FFFFFF"/>
<rect x="1328" y="0" width="4" height="200" fill="#FFFFFF"/>
<rect x="1360" y="0" width="40" height="200" fill="#FDDA25"/>
<rect x="1460" y="0" width="4" height="200" fill="#FFFFFF"/>
<rect x="1474" y="0" width="4" height="200" fill="#FFFFFF"/>
<rect x="1488" y="0" width="4" height="200" fill="#FFFFFF"/>
<rect x="1520" y="0" width="40" height="200" fill="#FDDA25"/>
<rect x="1620" y="0" width="4" height="200" fill="#FFFFFF"/>
<rect x="1634" y="0" width="4" height="200" fill="#FFFFFF"/>
<rect x="1648" y="0" width="4" height="200" fill="#FFFFFF"/>
<rect x="1680" y="0" width="40" height="200" fill="#FDDA25"/>
<rect x="1780" y="0" width="4" height="200" fill="#FFFFFF"/>
<rect x="1794" y="0" width="4" height="200" fill="#FFFFFF"/>
<rect x="1808" y="0" width="4" height="200" fill="#FFFFFF"/>
<rect x="1840" y="0" width="40" height="200" fill="#FDDA25"/>
<g transform="translate(0,200) scale(1.2,0.833333)">
<path d="M 100,20 L 108,43 L 100,66 L 92,43 Z" fill="none" stroke="#0032A0" stroke-width="4" stroke-linejoin="round"/>
<circle cx="100" cy="76" r="7" fill="#0032A0"/>
<rect x="97" y="85" width="6" height="14" fill="#0032A0"/>
<rect x="86" y="86.5" width="28" height="5" fill="#0032A0"/>
<path d="M 300,20 L 308,43 L 300,66 L 292,43 Z" fill="none" stroke="#C8102E" stroke-width="4" stroke-linejoin="round"/>
<circle cx="300" cy="76" r="7" fill="#C8102E"/>
<rect x="297" y="85" width="6" height="14" fill="#C8102E"/>
<rect x="286" y="86.5" width="28" height="5" fill="#C8102E"/>
<path d="M 500,20 L 508,43 L 500,66 L 492,43 Z" fill="none" stroke="#FDDA25" stroke-width="4" stroke-linejoin="round"/>
<circle cx="500" cy="76" r="7" fill="#FDDA25"/>
<rect x="497" y="85" width="6" height="14" fill="#FDDA25"/>
<rect x="486" y="86.5" width="28" height="5" fill="#FDDA25"/>
<path d="M 700,20 L 708,43 L 700,66 L 692,43 Z" fill="none" stroke="#25282A" stroke-width="4" stroke-linejoin="round"/>
<circle cx="700" cy="76" r="7" fill="#25282A"/>
<rect x="697" y="85" width="6" height="14" fill="#25282A"/>
<rect x="686" y="86.5" width="28" height="5" fill="#25282A"/>
<path d="M 900,20 L 908,43 L 900,66 L 892,43 Z" fill="none" stroke="#0032A0" stroke-width="4" stroke-linejoin="round"/>
<circle cx="900" cy="76" r="7" fill="#0032A0"/>
<rect x="897" y="85" width="6" height="14" fill="#0032A0"/>
<rect x="886" y="86.5" width="28" height="5" fill="#0032A0"/>
<path d="M 1100,20 L 1108,43 L 1100,66 L 1092,43 Z" fill="none" stroke="#C8102E" stroke-width="4" stroke-linejoin="round"/>
<circle cx="1100" cy="76" r="7" fill="#C8102E"/>
<rect x="1097" y="85" width="6" height="14" fill="#C8102E"/>
<rect x="1086" y="86.5" width="28" height="5" fill="#C8102E"/>
<path d="M 1300,20 L 1308,43 L 1300,66 L 1292,43 Z" fill="none" stroke="#FDDA25" stroke-width="4" stroke-linejoin="round"/>
<circle cx="1300" cy="76" r="7" fill="#FDDA25"/>
<rect x="1297" y="85" width="6" height="14" fill="#FDDA25"/>
<rect x="1286" y="86.5" width="28" height="5" fill="#FDDA25"/>
<path d="M 1500,20 L 1508,43 L 1500,66 L 1492,43 Z" fill="none" stroke="#25282A" stroke-width="4" stroke-linejoin="round"/>
<circle cx="1500" cy="76" r="7" fill="#25282A"/>
<rect x="1497" y="85" width="6" height="14" fill="#25282A"/>
<rect x="1486" y="86.5" width="28" height="5" fill="#25282A"/>
</g>
</svg>
