<svg xmlns="http://www.w3.org/2000/svg" viewBox="0 0 1920 1080">
<rect x="0" y="0" width="1920" height="1080" fill="#FFFFFF"/>
<svg x="20" y="0" width="200" height="860" viewBox="0 0 200 860" overflow="hidden">
<rect x="0" y="0" width="200" height="860" fill="#0032A0"/>
<path d="M 100,50 L 150,100 L 100,150 L 50,100 Z" fill="none" stroke="#FDDA25" stroke-width="8"/>
<circle cx="100" cy="100" r="10" fill="#C8102E"/>
<path d="M 100,250 L 150,300 L 100,350 L 50,300 Z" fill="none" stroke="#FDDA25" stroke-width="8"/>
<circle cx="100" cy="300" r="10" fill="#C8102E"/>
<path d="M 100,450 L 150,500 L 100,550 L 50,500 Z" fill="none" stroke="#FDDA25" stroke-width="8"/>
<circle cx="100" cy="500" r="10" fill="#C8102E"/>
<path d="M 100,650 L 150,700 L 100,750 L 50,700 Z" fill="none" stroke="#FDDA25" stroke-width="8"/>
<circle cx="100" cy="700" r="10" fill="#C8102E"/>
<path d="M 100,850 L 150,900 L 100,950 L 50,900 Z" fill="none" stroke="#FDDA25" stroke-width="8"/>
<circle cx="100" cy="900" r="10" fill="#C8102E"/>
</svg>
<svg x="260" y="0" width="200" height="860" viewBox="0 0 200 860" overflow="hidden">
<rect x="0" y="0" width="200" height="860" fill="#C8102E"/>
<path d="M 0,110 L 100,40 L 200,110" fill="none" stroke="#FFFFFF" stroke-width="16" stroke-linejoin="round" stroke-linecap="square"/>
<path d="M 0,260 L 100,190 L 200,260" fill="none" stroke="#FFFFFF" stroke-width="16" stroke-linejoin="round" stroke-linecap="square"/>
<path d="M 0,410 L 100,340 L 200,410" fill="none" stroke="#FFFFFF" stroke-width="16" stroke-linejoin="round" stroke-linecap="square"/>
<path d="M 0,560 L 100,490 L 200,560" fill="none" stroke="#FFFFFF" stroke-width="16" stroke-linejoin="round" stroke-linecap="square"/>
<path d="M 0,710 L 100,640 L 200,710" fill="none" stroke="#FFFFFF" stroke-width="16" stroke-linejoin="round" stroke-linecap="square"/>
<path d="M 0,860 L 100,790 L 200,860" fill="none" stroke="#FFFFFF" stroke-width="16" stroke-linejoin="round" stroke-linecap="square"/>
<rect x="0" y="0" width="6" height="860" fill="#FDDA25"/>
<rect x="194" y="0" width="6" height="860" fill="#FDDA25"/>
</svg>
<svg x="500" y="0" width="200" height="860" viewBox="0 0 200 860" overflow="hidden">
<rect x="0" y="0" width="200" height="860" fill="#FDDA25"/>
<rect x="0" y="0" width="200" height="24" fill="#0032A0"/>
<rect x="90" y="62" width="20" height="20" fill="#C8102E"/>
<rect x="0" y="120" width="200" height="24" fill="#0032A0"/>
<rect x="90" y="182" width="20" height="20" fill="#C8102E"/>
<rect x="0" y="240" width="200" height="24" fill="#0032A0"/>
<rect x="90" y="302" width="20" height="20" fill="#C8102E"/>
<rect x="0" y="360" width="200" height="24" fill="#0032A0"/>
<rect x="90" y="422" width="20" height="20" fill="#C8102E"/>
<rect x="0" y="480" width="200" height="24" fill="#0032A0"/>
<rect x="90" y="542" width="20" height="20" fill="#C8102E"/>
<rect x="0" y="600" width="200" height="24" fill="#0032A0"/>
<rect x="90" y="662" width="20" height="20" fill="#C8102E"/>
<rect x="0" y="720" width="200" height="24" fill="#0032A0"/>
<rect x="90" y="782" width="20" height="20" fill="#C8102E"/>
<rect x="0" y="840" width="200" height="24" fill="#0032A0"/>
<rect x="90" y="902" width="20" height="20" fill="#C8102E"/>
</svg>
<svg x="740" y="0" width="200" height="860" viewBox="0 0 200 860" overflow="hidden">
<rect x="0" y="0" width="200" height="860" fill="#25282A"/>
<path d="M 100,12 L 118,30 L 100,48 L 82,30 Z" fill="#FDDA25"/>
<path d="M 100,72 L 118,90 L 100,108 L 82,90 Z" fill="#FDDA25"/>
<path d="M 100,132 L 118,150 L 100,168 L 82,150 Z" fill="#FDDA25"/>
<path d="M 100,192 L 118,210 L 100,228 L 82,210 Z" fill="#FDDA25"/>
<path d="M 100,252 L 118,270 L 100,288 L 82,270 Z" fill="#FDDA25"/>
<path d="M 100,312 L 118,330 L 100,348 L 82,330 Z" fill="#FDDA25"/>
<path d="M 100,372 L 118,390 L 100,408 L 82,390 Z" fill="#FDDA25"/>
<path d="M 100,432 L 118,450 L 100,468 L 82,450 Z" fill="#FDDA25"/>
<path d="M 100,492 L 118,510 L 100,528 L 82,510 Z" fill="#FDDA25"/>
<path d="M 100,552 L 118,570 L 100,588 L 82,570 Z" fill="#FDDA25"/>
<path d="M 100,612 L 118,630 L 100,648 L 82,630 Z" fill="#FDDA25"/>
<path d="M 100,672 L 118,690 L 100,708 L 82,690 Z" fill="#FDDA25"/>
<path d="M 100,732 L 118,750 L 100,768 L 82,750 Z" fill="#FDDA25"/>
<path d="M 100,792 L 118,810 L 100,828 L 82,810 Z" fill="#FDDA25"/>
<path d="M 100,852 L 118,870 L 100,888 L 82,870 Z" fill="#FDDA25"/>
<rect x="0" y="0" width="6" height="860" fill="#C8102E"/>
<rect x="194" y="0" width="6" height="860" fill="#C8102E"/>
</svg>
<svg x="980" y="0" width="200" height="860" viewBox="0 0 200 860" overflow="hidden">
<rect x="0" y="0" width="200" height="860" fill="#0032A0"/>
<rect x="0" y="20" width="200" height="4" fill="#FFFFFF"/>
<rect x="0" y="34" width="200" height="4" fill="#FFFFFF"/>
<rect x="0" y="48" width="200" height="4" fill="#FFFFFF"/>
<rect x="0" y="80" width="200" height="40" fill="#FDDA25"/>
<rect x="0" y="220" width="200" height="4" fill="#FFFFFF"/>
<rect x="0" y="234" width="200" height="4" fill="#FFFFFF"/>
<rect x="0" y="248" width="200" height="4" fill="#FFFFFF"/>
<rect x="0" y="280" width="200" height="40" fill="#FDDA25"/>
<rect x="0" y="420" width="200" height="4" fill="#FFFFFF"/>
<rect x="0" y="434" width="200" height="4" fill="#FFFFFF"/>
<rect x="0" y="448" width="200" height="4" fill="#FFFFFF"/>
<rect x="0" y="480" width="200" height="40" fill="#FDDA25"/>
<rect x="0" y="620" width="200" height="4" fill="#FFFFFF"/>
<rect x="0" y="634" width="200" height="4" fill="#FFFFFF"/>
<rect x="0" y="648" width="200" height="4" fill="#FFFFFF"/>
<rect x="0" y="680" width="200" height="40" fill="#FDDA25"/>
<rect x="0" y="820" width="200" height="4" fill="#FFFFFF"/>
<rect x="0" y="834" width="200" height="4" fill="#FFFFFF"/>
<rect x="0" y="848" width="200" height="4" fill="#FFFFFF"/>
</svg>
<svg x="1220" y="0" width="200" height="860" viewBox="0 0 200 860" overflow="hidden">
<rect x="0" y="0" width="200" height="860" fill="#FFFFFF"/>
<polygon points="100,0 0,150 200,150" fill="#C8102E" stroke="#0032A0" stroke-width="2"/>
<polygon points="100,300 0,150 200,150" fill="#0032A0" stroke="#0032A0" stroke-width="2"/>
<polygon points="100,300 0,450 200,450" fill="#C8102E" stroke="#0032A0" stroke-width="2"/>
<polygon points="100,600 0,450 200,450" fill="#0032A0" stroke="#0032A0" stroke-width="2"/>
<polygon points="100,600 0,750 200,750" fill="#C8102E" stroke="#0032A0" stroke-width="2"/>
<polygon points="100,900 0,750 200,750" fill="#0032A0" stroke="#0032A0" stroke-width="2"/>
</svg>
<svg x="1460" y="0" width="200" height="860" viewBox="0 0 200 860" overflow="hidden">
<rect x="0" y="0" width="200" height="860" fill="#C8102E"/>
<rect x="0" y="60" width="200" height="30" fill="#FDDA25"/>
<circle cx="100" cy="75" r="10" fill="#25282A"/>
<rect x="0" y="210" width="200" height="30" fill="#FDDA25"/>
<circle cx="100" cy="225" r="10" fill="#25282A"/>
<rect x="0" y="360" width="200" height="30" fill="#FDDA25"/>
<circle cx="100" cy="375" r="10" fill="#25282A"/>
<rect x="0" y="510" width="200" height="30" fill="#FDDA25"/>
<circle cx="100" cy="525" r="10" fill="#25282A"/>
<rect x="0" y="660" width="200" height="30" fill="#FDDA25"/>
<circle cx="100" cy="675" r="10" fill="#25282A"/>
<rect x="0" y="810" width="200" height="30" fill="#FDDA25"/>
<circle cx="100" cy="825" r="10" fill="#25282A"/>
</svg>
<svg x="1700" y="0" width="200" height="860" viewBox="0 0 200 860" overflow="hidden">
<rect x="0" y="0" width="200" height="860" fill="#0032A0"/>
<path d="M 100,50 L 150,100 L 100,150 L 50,100 Z" fill="#FFFFFF"/>
<path d="M 100,75 L 125,100 L 100,125 L 75,100 Z" fill="#FDDA25"/>
<path d="M 100,250 L 150,300 L 100,350 L 50,300 Z" fill="#FFFFFF"/>
<path d="M 100,275 L 125,300 L 100,325 L 75,300 Z" fill="#FDDA25"/>
<path d="M 100,450 L 150,500 L 100,550 L 50,500 Z" fill="#FFFFFF"/>
<path d="M 100,475 L 125,500 L 100,525 L 75,500 Z" fill="#FDDA25"/>
<path d="M 100,650 L 150,700 L 100,750 L 50,700 Z" fill="#FFFFFF"/>
<path d="M 100,675 L 125,700 L 100,725 L 75,700 Z" fill="#FDDA25"/>
<path d="M 100,850 L 150,900 L 100,950 L 50,900 Z" fill="#FFFFFF"/>
<path d="M 100,875 L 125,900 L 100,925 L 75,900 Z" fill="#FDDA25"/>
</svg>
<path d="M 120,890.5 L 128,913.5 L 120,936.5 L 112,913.5 Z" fill="none" stroke="#0032A0" stroke-width="4" stroke-linejoin="round"/>
<circle cx="120" cy="946.5" r="7" fill="#0032A0"/>
<rect x="117" y="955.5" width="6" height="14" fill="#0032A0"/>
<rect x="106" y="957" width="28" height="5" fill="#0032A0"/>
<path d="M 360,890.5 L 368,913.5 L 360,936.5 L 352,913.5 Z" fill="none" stroke="#C8102E" stroke-width="4" stroke-linejoin="round"/>
<circle cx="360" cy="946.5" r="7" fill="#C8102E"/>
<rect x="357" y="955.5" width="6" height="14" fill="#C8102E"/>
<rect x="346" y="957" width="28" height="5" fill="#C8102E"/>
<path d="M 600,890.5 L 608,913.5 L 600,936.5 L 592,913.5 Z" fill="none" stroke="#FDDA25" stroke-width="4" stroke-linejoin="round"/>
<circle cx="600" cy="946.5" r="7" fill="#FDDA25"/>
<rect x="597" y="955.5" width="6" height="14" fill="#FDDA25"/>
<rect x="586" y="957" width="28" height="5" fill="#FDDA25"/>
<path d="M 840,890.5 L 848,913.5 L 840,936.5 L 832,913.5 Z" fill="none" stroke="#25282A" stroke-width="4" stroke-linejoin="round"/>
<circle cx="840" cy="946.5" r="7" fill="#25282A"/>
<rect x="837" y="955.5" width="6" height="14" fill="#25282A"/>
<rect x="826" y="957" width="28" height="5" fill="#25282A"/>
<path d="M 1080,890.5 L 1088,913.5 L 1080,936.5 L 1072,913.5 Z" fill="none" stroke="#0032A0" stroke-width="4" stroke-linejoin="round"/>
<circle cx="1080" cy="946.5" r="7" fill="#0032A0"/>
<rect x="1077" y="955.5" width="6" height="14" fill="#0032A0"/>
<rect x="1066" y="957" width="28" height="5" fill="#0032A0"/>
<path d="M 1320,890.5 L 1328,913.5 L 1320,936.5 L 1312,913.5 Z" fill="none" stroke="#C8102E" stroke-width="4" stroke-linejoin="round"/>
<circle cx="1320" cy="946.5" r="7" fill="#C8102E"/>
<rect x="1317" y="955.5" width="6" height="14" fill="#C8102E"/>
<rect x="1306" y="957" width="28" height="5" fill="#C8102E"/>
<path d="M 1560,890.5 L 1568,913.5 L 1560,936.5 L 1552,913.5 Z" fill="none" stroke="#FDDA25" stroke-width="4" stroke-linejoin="round"/>
<circle cx="1560" cy="946.5" r="7" fill="#FDDA25"/>
<rect x="1557" y="955.5" width="6" height="14" fill="#FDDA25"/>
<rect x="1546" y="957" width="28" height="5" fill="#FDDA25"/>
<path d="M 1800,890.5 L 1808,913.5 L 1800,936.5 L 1792,913.5 Z" fill="none" stroke="#25282A" stroke-width="4" stroke-linejoin="round"/>
<circle cx="1800" cy="946.5" r="7" fill="#25282A"/>
<rect x="1797" y="955.5" width="6" height="14" fill="#25282A"/>
<rect x="1786" y="957" width="28" height="5" fill="#25282A"/>
</svg>
