<svg xmlns="http://www.w3.org/2000/svg" viewBox="0 0 1920 160">
<rect x="0" y="0" width="1920" height="160" fill="#0032A0"/>
<path d="M 80,20 L 140,80 L 80,140 L 20,80 Z" fill="#FDDA25"/>
<path d="M 240,20 L 300,80 L 240,140 L 180,80 Z" fill="#FDDA25"/>
<path d="M 400,20 L 460,80 L 400,140 L 340,80 Z" fill="#FDDA25"/>
<path d="M 560,20 L 620,80 L 560,140 L 500,80 Z" fill="#FDDA25"/>
<path d="M 720,20 L 780,80 L 720,140 L 660,80 Z" fill="#FDDA25"/>
<path d="M 880,20 L 940,80 L 880,140 L 820,80 Z" fill="#FDDA25"/>
<path d="M 1040,20 L 1100,80 L 1040,140 L 980,80 Z" fill="#FDDA25"/>
<path d="M 1200,20 L 1260,80 L 1200,140 L 1140,80 Z" fill="#FDDA25"/>
<path d="M 1360,20 L 1420,80 L 1360,140 L 1300,80 Z" fill="#FDDA25"/>
<path d="M 1520,20 L 1580,80 L 1520,140 L 1460,80 Z" fill="#FDDA25"/>
<path d="M 1680,20 L 1740,80 L 1680,140 L 1620,80 Z" fill="#FDDA25"/>
<path d="M 1840,20 L 1900,80 L 1840,140 L 1780,80 Z" fill="#FDDA25"/>
</svg>
