<svg xmlns="http://www.w3.org/2000/svg" viewBox="0 0 512 512">
<rect x="0" y="0" width="512" height="512" fill="#FFFFFF"/>
<path d="M 64,0 L 128,64 L 64,128 L 0,64 Z" fill="none" stroke="#0032A0" stroke-opacity="0.05" stroke-width="2"/>
<path d="M 192,0 L 256,64 L 192,128 L 128,64 Z" fill="none" stroke="#0032A0" stroke-opacity="0.05" stroke-width="2"/>
<path d="M 320,0 L 384,64 L 320,128 L 256,64 Z" fill="none" stroke="#0032A0" stroke-opacity="0.05" stroke-width="2"/>
<path d="M 448,0 L 512,64 L 448,128 L 384,64 Z" fill="none" stroke="#0032A0" stroke-opacity="0.05" stroke-width="2"/>
<path d="M 64,128 L 128,192 L 64,256 L 0,192 Z" fill="none" stroke="#0032A0" stroke-opacity="0.05" stroke-width="2"/>
<path d="M 192,128 L 256,192 L 192,256 L 128,192 Z" fill="none" stroke="#0032A0" stroke-opacity="0.05" stroke-width="2"/>
<path d="M 320,128 L 384,192 L 320,256 L 256,192 Z" fill="none" stroke="#0032A0" stroke-opacity="0.05" stroke-width="2"/>
<path d="M 448,128 L 512,192 L 448,256 L 384,192 Z" fill="none" stroke="#0032A0" stroke-opacity="0.05" stroke-width="2"/>
<path d="M 64,256 L 128,320 L 64,384 L 0,320 Z" fill="none" stroke="#0032A0" stroke-opacity="0.05" stroke-width="2"/>
<path d="M 192,256 L 256,320 L 192,384 L 128,320 Z" fill="none" stroke="#0032A0" stroke-opacity="0.05" stroke-width="2"/>
<path d="M 320,256 L 384,320 L 320,384 L 256,320 Z" fill="none" stroke="#0032A0" stroke-opacity="0.05" stroke-width="2"/>
<path d="M 448,256 L 512,320 L 448,384 L 384,320 Z" fill="none" stroke="#0032A0" stroke-opacity="0.05" stroke-width="2"/>
<path d="M 64,384 L 128,448 L 64,512 L 0,448 Z" fill="none" stroke="#0032A0" stroke-opacity="0.05" stroke-width="2"/>
<path d="M 192,384 L 256,448 L 192,512 L 128,448 Z" fill="none" stroke="#0032A0" stroke-opacity="0.05" stroke-width="2"/>
<path d="M 320,384 L 384,448 L 320,512 L 256,448 Z" fill="none" stroke="#0032A0" stroke-opacity="0.05" stroke-width="2"/>
<path d="M 448,384 L 512,448 L 448,512 L 384,448 Z" fill="none" stroke="#0032A0" stroke-opacity="0.05" stroke-width="2"/>
</svg>
