<svg xmlns="http://www.w3.org/2000/svg" viewBox="0 0 1600 120">
<path d="M 100,20 L 108,43 L 100,66 L 92,43 Z" fill="none" stroke="#0032A0" stroke-width="4" stroke-linejoin="round"/>
<circle cx="100" cy="76" r="7" fill="#0032A0"/>
<rect x="97" y="85" width="6" height="14" fill="#0032A0"/>
<rect x="86" y="86.5" width="28" height="5" fill="#0032A0"/>
<path d="M 300,20 L 308,43 L 300,66 L 292,43 Z" fill="none" stroke="#C8102E" stroke-width="4" stroke-linejoin="round"/>
<circle cx="300" cy="76" r="7" fill="#C8102E"/>
<rect x="297" y="85" width="6" height="14" fill="#C8102E"/>
<rect x="286" y="86.5" width="28" height="5" fill="#C8102E"/>
<path d="M 500,20 L 508,43 L 500,66 L 492,43 Z" fill="none" stroke="#FDDA25" stroke-width="4" stroke-linejoin="round"/>
<circle cx="500" cy="76" r="7" fill="#FDDA25"/>
<rect x="497" y="85" width="6" height="14" fill="#FDDA25"/>
<rect x="486" y="86.5" width="28" height="5" fill="#FDDA25"/>
<path d="M 700,20 L 708,43 L 700,66 L 692,43 Z" fill="none" stroke="#25282A" stroke-width="4" stroke-linejoin="round"/>
<circle cx="700" cy="76" r="7" fill="#25282A"/>
<rect x="697" y="85" width="6" height="14" fill="#25282A"/>
<rect x="686" y="86.5" width="28" height="5" fill="#25282A"/>
<path d="M 900,20 L 908,43 L 900,66 L 892,43 Z" fill="none" stroke="#0032A0" stroke-width="4" stroke-linejoin="round"/>
<circle cx="900" cy="76" r="7" fill="#0032A0"/>
<rect x="897" y="85" width="6" height="14" fill="#0032A0"/>
<rect x="886" y="86.5" width="28" height="5" fill="#0032A0"/>
<path d="M 1100,20 L 1108,43 L 1100,66 L 1092,43 Z" fill="none" stroke="#C8102E" stroke-width="4" stroke-linejoin="round"/>
<circle cx="1100" cy="76" r="7" fill="#C8102E"/>
<rect x="1097" y="85" width="6" height="14" fill="#C8102E"/>
<rect x="1086" y="86.5" width="28" height="5" fill="#C8102E"/>
<path d="M 1300,20 L 1308,43 L 1300,66 L 1292,43 Z" fill="none" stroke="#FDDA25" stroke-width="4" stroke-linejoin="round"/>
<circle cx="1300" cy="76" r="7" fill="#FDDA25"/>
<rect x="1297" y="85" width="6" height="14" fill="#FDDA25"/>
<rect x="1286" y="86.5" width="28" height="5" fill="#FDDA25"/>
<path d="M 1500,20 L 1508,43 L 1500,66 L 1492,43 Z" fill="none" stroke="#25282A" stroke-width="4" stroke-linejoin="round"/>
<circle cx="1500" cy="76" r="7" fill="#25282A"/>
<rect x="1497" y="85" width="6" height="14" fill="#25282A"/>
<rect x="1486" y="86.5" width="28" height="5" fill="#25282A"/>
</svg>
