<svg xmlns="http://www.w3.org/2000/svg" viewBox="0 0 200 1200">
<rect x="0" y="0" width="200" height="1200" fill="#FDDA25"/>
<rect x="0" y="0" width="200" height="24" fill="#0032A0"/>
<rect x="90" y="62" width="20" height="20" fill="#C8102E"/>
<rect x="0" y="120" width="200" height="24" fill="#0032A0"/>
<rect x="90" y="182" width="20" height="20" fill="#C8102E"/>
<rect x="0" y="240" width="200" height="24" fill="#0032A0"/>
<rect x="90" y="302" width="20" height="20" fill="#C8102E"/>
<rect x="0" y="360" width="200" height="24" fill="#0032A0"/>
<rect x="90" y="422" width="20" height="20" fill="#C8102E"/>
<rect x="0" y="480" width="200" height="24" fill="#0032A0"/>
<rect x="90" y="542" width="20" height="20" fill="#C8102E"/>
<rect x="0" y="600" width="200" height="24" fill="#0032A0"/>
<rect x="90" y="662" width="20" height="20" fill="#C8102E"/>
<rect x="0" y="720" width="200" height="24" fill="#0032A0"/>
<rect x="90" y="782" width="20" height="20" fill="#C8102E"/>
<rect x="0" y="840" width="200" height="24" fill="#0032A0"/>
<rect x="90" y="902" width="20" height="20" fill="#C8102E"/>
<rect x="0" y="960" width="200" height="24" fill="#0032A0"/>
<rect x="90" y="1022" width="20" height="20" fill="#C8102E"/>
<rect x="0" y="1080" width="200" height="24" fill="#0032A0"/>
<rect x="90" y="1142" width="20" height="20" fill="#C8102E"/>
</svg>
