<svg xmlns="http://www.w3.org/2000/svg" viewBox="0 0 200 1200">
<rect x="0" y="0" width="200" height="1200" fill="#25282A"/>
<path d="M 100,12 L 118,30 L 100,48 L 82,30 Z" fill="#FDDA25"/>
<path d="M 100,72 L 118,90 L 100,108 L 82,90 Z" fill="#FDDA25"/>
<path d="M 100,132 L 118,150 L 100,168 L 82,150 Z" fill="#FDDA25"/>
<path d="M 100,192 L 118,210 L 100,228 L 82,210 Z" fill="#FDDA25"/>
<path d="M 100,252 L 118,270 L 100,288 L 82,270 Z" fill="#FDDA25"/>
<path d="M 100,312 L 118,330 L 100,348 L 82,330 Z" fill="#FDDA25"/>
<path d="M 100,372 L 118,390 L 100,408 L 82,390 Z" fill="#FDDA25"/>
<path d="M 100,432 L 118,450 L 100,468 L 82,450 Z" fill="#FDDA25"/>
<path d="M 100,492 L 118,510 L 100,528 L 82,510 Z" fill="#FDDA25"/>
<path d="M 100,552 L 118,570 L 100,588 L 82,570 Z" fill="#FDDA25"/>
<path d="M 100,612 L 118,630 L 100,648 L 82,630 Z" fill="#FDDA25"/>
<path d="M 100,672 L 118,690 L 100,708 L 82,690 Z" fill="#FDDA25"/>
<path d="M 100,732 L 118,750 L 100,768 L 82,750 Z" fill="#FDDA25"/>
<path d="M 100,792 L 118,810 L 100,828 L 82,810 Z" fill="#FDDA25"/>
<path d="M 100,852 L 118,870 L 100,888 L 82,870 Z" fill="#FDDA25"/>
<path d="M 100,912 L 118,930 L 100,948 L 82,930 Z" fill="#FDDA25"/>
<path d="M 100,972 L 118,990 L 100,1008 L 82,990 Z" fill="#FDDA25"/>
<path d="M 100,1032 L 118,1050 L 100,1068 L 82,1050 Z" fill="#FDDA25"/>
<path d="M 100,1092 L 118,1110 L 100,1128 L 82,1110 Z" fill="#FDDA25"/>
<path d="M 100,1152 L 118,1170 L 100,1188 L 82,1170 Z" fill="#FDDA25"/>
<rect x="0" y="0" width="6" height="1200" fill="#C8102E"/>
<rect x="194" y="0" width="6" height="1200" fill="#C8102E"/>
</svg>
